<?xml version="1.0" standalone="no"?>
<!DOCTYPE svg PUBLIC "-//W3C//DTD SVG 1.1//EN" "http://www.w3.org/Graphics/SVG/1.1/DTD/svg11.dtd" >
<svg xmlns="http://www.w3.org/2000/svg" xmlns:xlink="http://www.w3.org/1999/xlink" version="1.1">
<metadata></metadata>
<defs>
<font id="platan_bgregular" horiz-adv-x="813" >
<font-face units-per-em="2048" ascent="1536" descent="-512" />
<missing-glyph horiz-adv-x="512" />
<glyph horiz-adv-x="0" />
<glyph horiz-adv-x="682" />
<glyph unicode=" "  horiz-adv-x="512" />
<glyph unicode="&#x09;" horiz-adv-x="512" />
<glyph unicode="&#xa0;" horiz-adv-x="512" />
<glyph unicode="!" horiz-adv-x="598" d="M205 80q0 38 28 66t66 28t66 -28t28 -66t-28 -66t-66 -28t-66 28t-28 66zM217 1434h164l-23 -1039h-122z" />
<glyph unicode="&#x22;" horiz-adv-x="620" d="M82 1430h170l-43 -429h-86zM369 1430h170l-43 -429h-86z" />
<glyph unicode="#" horiz-adv-x="1181" d="M80 362v76h235l119 344h-219v76h246l121 352h92l-119 -352h268l123 352h92l-118 -352h184l-2 -76h-209l-115 -344h199v-76h-225l-123 -362h-103l125 362h-262l-123 -362h-102l125 362h-209zM414 438h264l119 344h-269z" />
<glyph unicode="%" horiz-adv-x="1865" d="M102 993q0 203 93.5 328t236.5 125q150 0 245 -127t95 -326q0 -82 -21 -160.5t-61.5 -144.5t-107.5 -106.5t-150 -40.5q-145 0 -237.5 128.5t-92.5 323.5zM248 1012q0 -375 184 -375q189 0 189 356q-4 82 -15 143.5t-32.5 111t-57 75t-84.5 25.5q-93 0 -138.5 -92.5 t-45.5 -243.5zM614 -25l519 1475h133l-516 -1475h-136zM1098 432q0 204 91.5 329.5t237.5 125.5q150 0 243 -128t93 -327q0 -81 -20.5 -159t-60 -144.5t-106 -107.5t-149.5 -41q-147 0 -238 128t-91 324zM1241 451q0 -371 186 -371q189 0 189 352q-4 82 -15.5 143.5 t-33 110.5t-56.5 74.5t-84 25.5q-94 0 -140 -92.5t-46 -242.5z" />
<glyph unicode="'" horiz-adv-x="415" d="M123 1430h170l-43 -429h-86z" />
<glyph unicode="(" horiz-adv-x="659" d="M102 672q0 269 86 521.5t242 399.5h168q-105 -98 -181.5 -256t-112.5 -328.5t-36 -338.5q0 -169 36 -340t112.5 -329.5t181.5 -256.5h-168q-156 147 -242 403t-86 525z" />
<glyph unicode=")" horiz-adv-x="659" d="M61 -256q105 98 181.5 256.5t112.5 329.5t36 340q0 168 -36 338.5t-112.5 328.5t-181.5 256h168q156 -147 242 -399.5t86 -521.5t-86 -525t-242 -403h-168z" />
<glyph unicode="*" horiz-adv-x="903" d="M139 772l193 148l-189 186l58 94l190 -199v275h107v-279l194 203l58 -94l-189 -186l193 -148l-60 -104l-196 178v-248h-107v244l-192 -174z" />
<glyph unicode="+" horiz-adv-x="1222" d="M123 580v114h422v443h114v-443h441v-114h-441v-441h-114v441h-422z" />
<glyph unicode="," horiz-adv-x="417" d="M33 -291l96 443l166 -33l-186 -438z" />
<glyph unicode="-" d="M123 580v114h567v-114h-567z" />
<glyph unicode="." horiz-adv-x="393" d="M102 82q0 38 28.5 66t66.5 28t66 -28t28 -66t-28 -66t-66 -28t-66.5 28t-28.5 66z" />
<glyph unicode="/" horiz-adv-x="716" d="M45 -244l457 1833h149l-446 -1833h-160z" />
<glyph unicode="0" horiz-adv-x="1200" d="M127 717q0 354 123 547.5t350 193.5t350 -193.5t123 -547.5t-123 -548t-350 -194t-350 194t-123 548zM295 717q0 -293 75 -456t230 -163t230 163t75 456t-75 455.5t-230 162.5t-230 -162.5t-75 -455.5z" />
<glyph unicode="1" horiz-adv-x="798" d="M20 1200l332 234h160v-1434h-160v1274l-286 -158z" />
<glyph unicode="2" horiz-adv-x="1081" d="M57 0v123q3 3 53.5 46t107 96t133.5 128.5t145 158.5t127.5 171t95 181t35.5 173q0 110 -67.5 183t-178.5 73q-73 0 -151 -49.5t-130 -122.5l-102 68q56 98 166.5 163.5t236.5 65.5q189 0 290.5 -102.5t101.5 -284.5q0 -84 -43.5 -187.5t-110.5 -200.5t-158 -201 t-176 -187t-174 -160l565 2l95 150h73l-69 -287h-865z" />
<glyph unicode="3" horiz-adv-x="1052" d="M111 1231q64 110 173 168.5t234 58.5q158 0 270.5 -94.5t112.5 -255.5q0 -232 -227 -338v-8q127 -36 201.5 -131.5t74.5 -229.5q0 -185 -132.5 -304.5t-334.5 -119.5q-205 0 -364 119l43 125q65 -60 151 -92.5t174 -32.5q124 0 209.5 85t85.5 229q0 51 -20 100t-59 91.5 t-105.5 68.5t-151.5 26h-118v123h110q127 0 211 75.5t84 197.5q0 112 -71.5 177.5t-176.5 65.5q-79 0 -150.5 -45.5t-127.5 -130.5z" />
<glyph unicode="4" horiz-adv-x="1175" d="M102 418v121l615 895h160v-893h206v-123h-206v-418h-160v418h-615zM256 541h461v665h-6z" />
<glyph unicode="5" horiz-adv-x="1069" d="M121 70l33 127q128 -97 286 -97q136 0 232.5 95.5t103.5 255.5q7 150 -83 235.5t-222 85.5q-142 0 -258 -94h-74l41 756h721l-27 -140h-571l-31 -440q111 53 267 49q182 -3 297.5 -114.5t115.5 -311.5q0 -145 -70 -261.5t-184 -178.5t-247 -62q-180 0 -330 95z" />
<glyph unicode="6" horiz-adv-x="1110" d="M113 666q4 135 24 250.5t62 216t102.5 171t149 111t198.5 41.5q195 2 314 -117l-76 -96q-43 40 -107.5 66t-122.5 26q-89 1 -159.5 -42.5t-113 -109.5t-70 -153t-38 -165.5t-10.5 -155.5q65 97 159 147.5t193 50.5q95 0 170.5 -33.5t123 -91.5t73 -134t27.5 -165 q2 -96 -26 -185t-82.5 -162t-145 -117t-203.5 -44q-118 0 -206.5 55t-140 152t-75.5 219t-20 265zM297 440q0 -91 31.5 -169t94 -127.5t144.5 -49.5q129 0 208 99t79 256q0 88 -22 153.5t-60 102t-83 54t-97 17.5q-114 -2 -204.5 -95.5t-90.5 -240.5z" />
<glyph unicode="7" horiz-adv-x="954" d="M74 1145l65 289h819v-119l-663 -1315h-154l668 1296h-565l-97 -151h-73z" />
<glyph unicode="8" horiz-adv-x="1081" d="M104 395q0 140 66 232t168 141q-82 48 -140.5 128.5t-58.5 190.5q0 78 25.5 142.5t66.5 105.5t94.5 69t107.5 40t108 12q71 0 139 -21t128.5 -62.5t98 -115.5t37.5 -170q0 -110 -57.5 -190.5t-138.5 -128.5q102 -52 167.5 -143.5t65.5 -229.5q0 -90 -27 -163.5 t-70.5 -120t-101.5 -78.5t-117.5 -45t-121.5 -13q-63 0 -123 13.5t-118 45.5t-101.5 79t-70 120t-26.5 162zM272 399q0 -131 75 -216t196 -85q116 0 193 76.5t77 220.5q0 131 -75.5 218t-194.5 87q-84 0 -147.5 -46.5t-93.5 -114t-30 -140.5zM307 1090q0 -113 65.5 -190 t170.5 -77q93 0 163 77.5t70 186.5q0 100 -66.5 173t-168.5 73q-106 0 -170 -71t-64 -172z" />
<glyph unicode="9" horiz-adv-x="1101" d="M98 950q-2 96 26 185t82.5 162t145 117t203.5 44q118 0 206.5 -55t140 -151.5t75.5 -218.5t20 -265q-4 -135 -24 -250.5t-62 -216t-102.5 -171.5t-149 -111.5t-198.5 -41.5q-195 -2 -314 117q13 16 38.5 47.5t37.5 48.5q43 -40 107.5 -66t122.5 -26q89 0 159.5 42.5 t113 107.5t70 151.5t38 166t10.5 159.5q-66 -97 -159.5 -148t-192.5 -51q-95 0 -170.5 33.5t-123 91.5t-73 134t-27.5 165zM256 985q0 -88 22 -153.5t59.5 -102.5t83 -54.5t97.5 -17.5q113 0 204 95t91 241q0 91 -31.5 169t-94 127.5t-144.5 49.5q-129 0 -208 -98.5 t-79 -255.5z" />
<glyph unicode=":" horiz-adv-x="393" d="M102 82q0 38 28.5 66t66.5 28t66 -28t28 -66t-28 -66t-66 -28t-66.5 28t-28.5 66zM102 932q0 38 28.5 66t66.5 28t66 -28t28 -66t-28 -66t-66 -28t-66.5 28t-28.5 66z" />
<glyph unicode=";" horiz-adv-x="434" d="M33 -291l76 -28l186 438l-166 33zM123 930q0 38 28 66t66 28t66 -28t28 -66t-28 -66t-66 -28t-66 28t-28 66z" />
<glyph unicode="&#x3c;" horiz-adv-x="1255" d="M143 590v94l947 516l22 -110l-819 -453l819 -453l-22 -110z" />
<glyph unicode="=" horiz-adv-x="1087" d="M123 416v96h842v-96h-842zM123 762v96h842v-96h-842z" />
<glyph unicode="&#x3e;" horiz-adv-x="1255" d="M143 184l820 453l-820 453l23 110l946 -516v-94l-946 -516z" />
<glyph unicode="?" horiz-adv-x="751" d="M82 1346q30 43 106.5 77.5t173.5 34.5q169 -2 269 -82.5t100 -234.5q0 -50 -20 -99.5t-52.5 -90t-71.5 -80t-78 -76.5t-71.5 -71.5t-52.5 -72.5t-20 -73v-162h-123v155q0 88 2 111q3 30 36.5 69.5t79.5 81t92 88t77.5 105t31.5 117.5q0 16 -2 33t-13.5 46.5t-30 52 t-57 40.5t-89.5 20q-154 0 -234 -82q-9 16 -26.5 47t-26.5 46zM213 80q0 38 28 66t66 28t66 -28t28 -66t-28 -66t-66 -28t-66 28t-28 66z" />
<glyph unicode="@" horiz-adv-x="1685" d="M123 578q0 156 55.5 295t153 240.5t238 160.5t302.5 59q155 0 287 -59t221 -160.5t137 -240.5t44 -295q-2 -68 -13 -132t-24 -106.5t-34 -87.5t-33.5 -65t-32.5 -49.5t-21 -31.5h-309q-6 18 -17.5 51.5t-17.5 51.5q-137 -119 -268 -119q-70 0 -134 23 q-116 43 -178.5 159.5t-62.5 272.5q0 133 33.5 237t90.5 167t128.5 95.5t152.5 32.5q148 0 248 -100q7 10 22.5 30.5t22.5 30.5h82v-813q18 -5 54.5 -15t54.5 -15q51 61 89 159.5t38 220.5q0 175 -65 316t-193.5 226t-299.5 85q-179 0 -320.5 -84.5t-217.5 -227t-76 -315.5 q0 -170 75 -312t207 -225t292 -83q166 0 290 65q7 -19 20.5 -55t20.5 -55q-172 -84 -334 -84q-197 0 -360 100t-255.5 272.5t-92.5 379.5zM565 549q0 -55 13.5 -111.5t42 -111t81.5 -89t123 -34.5q81 0 150 49.5t84 85.5v512q-81 121 -238 121q-121 0 -188.5 -111.5 t-67.5 -310.5z" />
<glyph unicode="A" horiz-adv-x="1216" d="M61 0l424 1317l-176 35v82h418l428 -1434h-168l-162 516h-450l-135 -399l155 -35v-82h-334zM408 639h387l-183 618h-6z" />
<glyph unicode="B" horiz-adv-x="1191" d="M47 1352v82h473q71 0 135 -12t122.5 -39.5t101 -68t67.5 -102.5t25 -139q0 -107 -59 -192.5t-156 -124.5v-6q147 -37 220 -131.5t73 -208.5q0 -410 -527 -410h-286v1311zM395 123h131q177 0 266 62.5t89 215.5q0 125 -96 200t-263 75h-127v-553zM395 799h127 q132 1 206 71q76 71 75 200q0 112 -73 176q-74 64 -204 65h-131v-512z" />
<glyph unicode="C" horiz-adv-x="1286" d="M115 750q3 109 31 212.5t81.5 193.5t127 157t173.5 106t215 39q193 0 371 -72v-286h-74l-49 192q-100 47 -239 47q-202 0 -335.5 -164t-133.5 -427q0 -308 130.5 -479t334.5 -171q172 0 311 113l53 -92q-92 -76 -183.5 -110t-209.5 -34q-131 0 -244 54t-195 153 q-82 98 -126 245q-40 132 -40 288q0 17 1 35z" />
<glyph unicode="D" horiz-adv-x="1390" d="M47 1352v82h498q336 0 519 -185.5t183 -505.5q0 -353 -178.5 -548t-484.5 -195h-348v1311zM395 123h187q234 0 365.5 156.5t131.5 463.5q-6 268 -145.5 418t-396.5 150h-142v-1188z" />
<glyph unicode="E" horiz-adv-x="1118" d="M47 1352v82h938v-306h-74l-49 183h-467v-523h443v-122h-443v-543h611l-11 -123h-759v1311z" />
<glyph unicode="F" horiz-adv-x="1157" d="M47 1352v82h981v-314h-74l-49 191h-510v-523h387l35 119h74v-360h-74l-35 119h-387v-666h-159v1311z" />
<glyph unicode="G" horiz-adv-x="1316" d="M115 750q2 104 29.5 206t82 192.5t128.5 159.5t175 109.5t215 40.5q195 0 392 -76v-286h-74l-49 192q-35 27 -104.5 42.5t-137.5 15.5q-142 0 -254.5 -80.5t-173.5 -216.5t-61 -301q0 -317 127.5 -482t355.5 -176q9 -1 18 -1q45 0 106 13q72 14 114 35v389l-160 52v71 h319v-569q-69 -48 -191 -80q-102 -28 -212 -28q-20 0 -41 1q-132 5 -242.5 56.5t-193 146t-127.5 241.5q-41 138 -41 310v23z" />
<glyph unicode="H" horiz-adv-x="1462" d="M49 1352v82h348v-625h670v625h160v-1434h-160v686h-670v-686h-159l-2 1311z" />
<glyph unicode="I" horiz-adv-x="610" d="M215 0v1434h160v-1434h-160z" />
<glyph unicode="J" horiz-adv-x="641" d="M-45 27l37 116q68 -22 102 -22q40 0 70 12t49.5 37t32 55.5t19 76.5t9 90.5t2.5 105.5v813l-188 41v82h348v-807q0 -92 -2 -157.5t-10 -138.5t-21.5 -122.5t-37 -97t-57 -75t-81.5 -44.5t-110 -17q-39 0 -87 15.5t-75 36.5z" />
<glyph unicode="K" horiz-adv-x="1269" d="M47 1352v82h348v-664l553 664h166l-506 -603l647 -831h-202l-555 709l-103 -125v-584h-159v1311z" />
<glyph unicode="L" horiz-adv-x="1009" d="M47 1352v82h348v-1311h563v-123h-722v1311z" />
<glyph unicode="M" horiz-adv-x="1789" d="M47 1352v82h365l493 -1137l471 1137h178v-1434h-159v1139h-9l-468 -1139h-64l-487 1139h-9v-1139h-122v1311z" />
<glyph unicode="N" horiz-adv-x="1439" d="M47 1352v82h311l723 -1135v1135h123v-1434h-123l-723 1135v-1135h-122v1311z" />
<glyph unicode="O" horiz-adv-x="1431" d="M113 713q0 172 46.5 314t126.5 235.5t186.5 144.5t227.5 51t228 -51t187 -144.5t126.5 -236t46.5 -313.5t-46.5 -312t-127 -233.5t-187 -142.5t-227.5 -50t-227.5 50t-186.5 142.5t-126.5 233.5t-46.5 312zM281 713q0 -277 120 -448t299 -171t299.5 171t120.5 448 q0 278 -121 452t-299 174t-298.5 -174t-120.5 -452z" />
<glyph unicode="P" horiz-adv-x="1101" d="M47 1352v82h475q217 0 347 -106.5t130 -295.5q0 -192 -135 -311t-342 -119h-127v-602h-159v1311zM395 725h127q144 0 229 86.5t85 222.5q0 122 -84 199.5t-230 77.5h-127v-586z" />
<glyph unicode="Q" horiz-adv-x="1431" d="M113 713q0 172 46.5 314t126.5 235.5t186.5 144.5t227.5 51t228 -51t187 -144.5t126.5 -236t46.5 -313.5q0 -284 -118.5 -470.5t-313.5 -244.5q22 -58 75.5 -96.5t103 -50t96 -18t47.5 -7.5v-72h-301l-234 228q-110 6 -207 61t-168.5 148t-113 228.5t-41.5 293.5z M281 713q0 -144 35 -263.5t93.5 -196t133.5 -118t157 -41.5t157 41.5t134 118t94 196t35 263.5t-35 264.5t-93.5 198t-134 120.5t-157.5 43t-157 -42.5t-133.5 -120.5t-93.5 -198.5t-35 -264.5z" />
<glyph unicode="R" horiz-adv-x="1187" d="M47 1352v82h535q104 0 186 -32.5t133.5 -88t78 -126t26.5 -151.5q0 -138 -82.5 -237.5t-200.5 -141.5l383 -657h-186l-377 645h-148v-645h-159v1311zM395 768h146q133 0 215 80t82 186q0 50 -15.5 98t-46 88.5t-81 65.5t-113.5 25h-187v-543z" />
<glyph unicode="S" horiz-adv-x="1148" d="M123 1085q0 177 121 275t350 98q208 0 321 -55v-275h-79l-60 172q-87 41 -176 41q-142 0 -228.5 -65t-86.5 -154q0 -127 172 -211q39 -19 114 -54t136 -65.5t106 -58.5q197 -119 197 -321q0 -203 -138 -323q-131 -114 -362 -114h-23q-88 1 -181.5 26t-164.5 62v287h74 l64 -170q104 -80 227 -80q150 0 243 69t93 202q0 64 -25 112.5t-84 91.5q-40 29 -91.5 58t-88.5 47t-101.5 47.5t-91.5 42.5q-120 61 -178.5 143t-58.5 172z" />
<glyph unicode="T" horiz-adv-x="1136" d="M20 1128v306h1065v-306h-73l-49 183h-330v-1311h-160v1311h-330l-49 -183h-74z" />
<glyph unicode="U" horiz-adv-x="1415" d="M47 1352v82h348v-867q0 -241 92 -355t258 -114q82 0 144.5 25t110.5 78.5t73 145.5t25 220v867h123v-869q0 -590 -476 -590q-68 0 -127.5 11.5t-118.5 37t-105.5 71t-82.5 109t-55.5 155.5t-19.5 206v746z" />
<glyph unicode="V" horiz-adv-x="1290" d="M-59 1352v82h313l426 -1129l356 1129h135l-462 -1434h-91l-487 1311z" />
<glyph unicode="W" horiz-adv-x="1855" d="M-29 1352v82h324l299 -1076l293 1076h114l299 -1076l293 1076h131l-393 -1434h-92l-313 1096l-303 -1096h-93l-370 1311z" />
<glyph unicode="X" horiz-adv-x="1249" d="M-14 1352v82h307l305 -543l342 543h152l-414 -648l444 -786h-180l-369 649l-407 -649h-156l482 754l-318 557z" />
<glyph unicode="Y" horiz-adv-x="1220" d="M-90 1352v82h307l389 -629l389 629h146l-475 -762v-672h-160v670l-408 641z" />
<glyph unicode="Z" horiz-adv-x="1241" d="M29 117l854 1194h-625l-49 -183h-74v306h926l26 -113l-858 -1198h686l103 180h74l-66 -303h-965z" />
<glyph unicode="[" horiz-adv-x="598" d="M172 -248v1843h330v-73l-191 -43v-1610l193 -43v-74h-332z" />
<glyph unicode="\" horiz-adv-x="688" d="M45 1589h150l456 -1833h-159z" />
<glyph unicode="]" horiz-adv-x="595" d="M94 -174l191 43v1610l-189 43v73h328v-1843h-330v74z" />
<glyph unicode="^" horiz-adv-x="1177" d="M197 700l393 736h82l424 -736l-105 -22l-360 620l-322 -624z" />
<glyph unicode="_" horiz-adv-x="1107" d="M0 -127h1108v-100h-1108v100z" />
<glyph unicode="`" horiz-adv-x="1705" d="M571 1409l164 23l230 -304l-74 -14z" />
<glyph unicode="a" horiz-adv-x="966" d="M82 246q0 80 41.5 148.5t108.5 113t150.5 69.5t168.5 25q64 0 82 -4v125q0 103 -50 154t-137 53h-4q-64 0 -128 -30q-66 -31 -107 -71l-64 80q139 133 324 133q64 0 117 -15.5t99 -50t72.5 -99t26.5 -154.5v-617l148 -30v-76h-268l-33 141q-53 -69 -135 -114t-164 -45 q-42 0 -84 15t-79.5 45t-61 83t-23.5 121zM236 258q0 -75 47.5 -113.5t103.5 -38.5q75 0 145 55t101 128v213q-16 4 -76 4q-54 0 -109 -16.5t-103 -46.5t-78.5 -78.5t-30.5 -106.5z" />
<glyph unicode="b" horiz-adv-x="1114" d="M37 1362v72h297v-496q55 48 132.5 76t143.5 28q192 0 303 -133t111 -356q0 -253 -114.5 -412t-293.5 -159q-166 0 -299 108l-57 -90h-76v1327zM334 221q44 -60 113.5 -92.5t127.5 -32.5q76 0 132.5 35t89.5 96.5t49 136.5t16 164q0 108 -29 195t-93.5 143t-155.5 56 q-84 0 -147 -34.5t-103 -80.5v-586z" />
<glyph unicode="c" horiz-adv-x="937" d="M86 487q0 244 132 399.5t347 155.5q152 0 258 -53v-250h-80l-34 166q-73 27 -148 27q-90 0 -162.5 -62.5t-111.5 -163t-39 -217.5q0 -171 86.5 -284t214.5 -113q65 0 120.5 18t112.5 68l54 -76q-123 -120 -306 -120q-89 0 -168 31t-141 91t-98.5 158.5t-36.5 224.5z" />
<glyph unicode="d" horiz-adv-x="1120" d="M86 471q0 115 23.5 210t64.5 161t96.5 111.5t119 67t132.5 21.5q137 0 254 -98v383l-147 35v72h297v-1328l147 -30v-76h-260l-37 109q-61 -54 -137.5 -90.5t-149.5 -36.5q-96 0 -173 38t-127 104t-76.5 155t-26.5 192zM248 475q0 -46 8.5 -94.5t29 -99.5t51 -90t79.5 -64 t110 -25q86 0 160.5 53.5t89.5 92.5v551q-88 129 -254 129q-130 0 -202 -120t-72 -333z" />
<glyph unicode="e" horiz-adv-x="985" d="M86 487q0 153 50.5 277.5t152.5 201t239 76.5q86 0 155 -33t111.5 -90t64.5 -129.5t22 -154.5v-66h-627q-8 -50 -8 -77q0 -192 86.5 -296t216.5 -104q139 0 252 113l59 -74q-61 -68 -148 -108.5t-177 -40.5q-137 0 -240 67.5t-156 181.5t-53 256zM272 680h471 q-7 125 -65 188.5t-154 63.5q-83 0 -156.5 -68t-95.5 -184z" />
<glyph unicode="f" horiz-adv-x="681" d="M27 913v111h168v18q0 60 5 109q7 57 27.5 116.5t54.5 99.5t94.5 65.5t141.5 25.5q92 0 127 -12l-8 -92h-34q-49 0 -84 -4q-47 -6 -87.5 -27.5t-62 -65t-25.5 -112.5v-121h279v-111h-279v-913h-149v913h-168z" />
<glyph unicode="g" horiz-adv-x="1110" d="M86 471q0 142 36 254t98 179.5t139.5 102.5t164.5 35q143 0 273 -110l47 92h82v-940q0 -137 -31.5 -239t-88.5 -161t-129 -87.5t-159 -28.5q-94 0 -188 39.5t-156 111.5l62 78q69 -64 144.5 -91.5t137.5 -27.5q129 0 193.5 95.5t64.5 310.5q-62 -51 -142 -76.5 t-142 -25.5q-127 0 -220.5 65.5t-139.5 175t-46 248.5zM250 475q0 -46 8.5 -94.5t29 -99.5t51 -90t79.5 -64t110 -25q62 0 131.5 32t116.5 83v586q-49 67 -118 96t-134 29q-130 0 -202 -120t-72 -333z" />
<glyph unicode="h" horiz-adv-x="1110" d="M37 1362v72h297v-506q54 49 126 81.5t150 32.5q49 0 88 -6.5t85 -30.5t76.5 -65t51.5 -116t21 -177v-647h-150v596q0 68 -2.5 109t-13.5 86t-31.5 69t-57.5 39.5t-91 15.5q-55 0 -132 -40t-120 -91v-784h-150v1327z" />
<glyph unicode="i" horiz-adv-x="546" d="M51 952v72h297v-1024h-149v918zM166 1339q0 38 28 66.5t66 28.5t66 -28.5t28 -66.5t-28 -66t-66 -28t-66 28t-28 66z" />
<glyph unicode="j" horiz-adv-x="528" d="M-125 -305q63 6 112.5 30t83 56.5t57 85t36.5 102t20 123.5t9 133.5t2 145.5v547l-148 34v72h297v-649q0 -154 -18.5 -277.5t-45.5 -203.5t-70 -139.5t-81 -89.5t-90.5 -49t-84.5 -23.5t-77 -6.5zM162 1339q0 38 28 66.5t66 28.5t66 -28.5t28 -66.5t-28 -66t-66 -28 t-66 28t-28 66z" />
<glyph unicode="k" horiz-adv-x="980" d="M37 1362v72h297v-885l414 475h153l-358 -406l438 -618h-180l-359 504l-108 -123v-381h-150v1327z" />
<glyph unicode="l" horiz-adv-x="528" d="M37 1362v72h297v-1328l147 -34v-72h-297v1327z" />
<glyph unicode="m" horiz-adv-x="1654" d="M47 952v72h264l33 -96q126 114 256 114q78 0 151 -32t113 -109q30 27 56 47t65.5 44t86 37t95.5 13q32 0 66 -6t80 -28t80.5 -58t59 -104t24.5 -158v-688h-150v555q0 51 -1 82t-4.5 73.5t-11 68.5t-21.5 55t-34 44.5t-49.5 26t-68.5 10.5q-54 0 -120.5 -39.5 t-105.5 -91.5l-2 -784h-147v575q0 58 -1.5 94t-7.5 80t-18.5 70t-33.5 50.5t-54 35t-78 10.5q-54 0 -120 -39.5t-105 -91.5v-784h-149v918z" />
<glyph unicode="n" horiz-adv-x="1120" d="M47 952v72h264l33 -96q51 46 129 80t152 34q22 0 42.5 -2t54 -10t61.5 -21.5t58.5 -40.5t51.5 -63t35 -92t14 -125v-688h-149v555q0 53 -0.5 82.5t-4.5 73.5t-11 68.5t-20.5 54t-33 45t-49 26t-68.5 10.5q-56 0 -138 -40.5t-124 -90.5v-784h-149v918z" />
<glyph unicode="o" horiz-adv-x="1052" d="M86 510q0 126 36.5 229t97.5 168t139.5 100t164.5 35t164.5 -35t140 -100t98 -168t36.5 -229t-36.5 -229t-98 -168.5t-140 -100.5t-164.5 -35t-164.5 35t-139.5 100.5t-97.5 168.5t-36.5 229zM248 510q0 -178 73.5 -300t202.5 -122t203 122t74 300t-74 300t-203 122 t-202.5 -122t-73.5 -300z" />
<glyph unicode="p" horiz-adv-x="1116" d="M41 952v72h256l35 -109q65 59 140.5 93t139.5 34q192 0 303 -133t111 -356q0 -255 -117.5 -413t-310.5 -158q-139 0 -262 94v-490h-152v1332zM336 221q44 -60 114 -92.5t128 -32.5q76 0 132.5 35t89 96.5t48.5 136.5t16 164q0 108 -29 195t-93.5 143t-155.5 56 q-131 0 -250 -136v-565z" />
<glyph unicode="q" horiz-adv-x="1118" d="M86 471q0 143 35.5 254.5t96.5 179t138 102.5t164 35q81 0 146.5 -27.5t130.5 -86.5l43 96h84v-1333l147 -33v-72h-297v502q-55 -49 -132 -77.5t-155 -28.5q-77 0 -142 24.5t-112.5 68.5t-80.5 105t-49.5 134.5t-16.5 156.5zM248 475q0 -47 8 -95t28.5 -99t51 -90t79 -64 t109.5 -25q87 0 161.5 45t88.5 80v572q-88 129 -254 129q-130 0 -201 -120t-71 -333z" />
<glyph unicode="r" horiz-adv-x="745" d="M47 952v72h242l37 -137q22 52 65.5 87.5t85.5 48.5t82 13q84 0 156 -45l-39 -88q-42 17 -92 17q-107 0 -172.5 -99t-65.5 -250v-571h-151v918z" />
<glyph unicode="s" horiz-adv-x="849" d="M115 782q0 86 48.5 146.5t119 87t153.5 26.5q61 0 134 -18t116 -55l-37 -86q-35 21 -90.5 35t-109.5 14q-76 0 -126.5 -35t-50.5 -102q0 -25 13.5 -49t33 -42.5t52 -38.5t60 -34t68.5 -34q15 -7 23 -11q40 -20 68 -36t62.5 -43.5t55.5 -56.5t35.5 -71t14.5 -90 q0 -55 -19 -107t-58 -98t-107 -74t-156 -28q-76 0 -158.5 19.5t-130.5 45.5v250h70l49 -172q29 -14 74 -25.5t77 -11.5q92 0 145.5 46.5t53.5 129.5q0 65 -34 108.5t-111 82.5q-19 10 -56 28t-59.5 29t-55.5 30.5t-53.5 35t-44.5 39t-37.5 47t-22.5 54t-9 64.5z" />
<glyph unicode="t" horiz-adv-x="704" d="M31 913v111h164l47 233h102v-233h295v-111h-295v-274v-87v-82.5v-56.5q1 -44 5 -109t14 -93t28 -60.5t47 -44t70 -10.5q37 2 102 10l15 -86q-77 -26 -187 -26q-51 0 -90 14.5t-64.5 33.5t-43 61t-26.5 74t-13.5 98t-5 106.5t-0.5 124.5v18v389h-164z" />
<glyph unicode="u" horiz-adv-x="1120" d="M31 952v72h297v-555q0 -41 0.5 -64t2 -59.5t5 -57t9.5 -49t15.5 -45t23.5 -35t32.5 -28t43 -16t54.5 -6.5q56 0 138 40.5t124 90.5v784h150v-918l147 -34v-72h-260l-37 96q-57 -51 -137 -82.5t-158 -31.5q-33 0 -62.5 4t-76.5 24.5t-80.5 55.5t-58.5 105t-25 165v582z " />
<glyph unicode="v" horiz-adv-x="950" d="M-51 952v72h268l272 -760l287 760h133l-399 -1024h-90l-324 918z" />
<glyph unicode="w" horiz-adv-x="1488" d="M-31 952v72h277l211 -778l256 778h108l266 -778l230 778h131l-315 -1024h-113l-270 760l-254 -760h-113l-266 918z" />
<glyph unicode="x" horiz-adv-x="933" d="M20 952v72h265l207 -373l235 373h141l-313 -479l317 -545h-178l-241 422l-273 -422h-147l356 532l-219 386z" />
<glyph unicode="y" horiz-adv-x="976" d="M-31 952v72h279l264 -782l293 782h131l-430 -1110q-32 -85 -71.5 -147t-75 -95t-80.5 -53t-75.5 -25.5t-72.5 -7.5l-12 117q38 0 78 8q171 39 233 330l-313 877z" />
<glyph unicode="z" horiz-adv-x="940" d="M82 0v117l561 796h-420l-43 -161h-69v272h716v-113l-559 -800h484l79 161h68l-33 -272h-784z" />
<glyph unicode="{" horiz-adv-x="768" d="M82 618v121h55q73 0 134 46.5t61 138.5l-2 460q0 152 74 213.5t208 61.5h54v-100l-74 -3q-49 0 -82 -39.5t-33 -121.5v-494q0 -62 -19.5 -106t-48 -64t-56.5 -30.5t-48.5 -14t-21.5 -6.5v-2q1 -3 21.5 -7t48.5 -14.5t56.5 -30.5t48 -64t19.5 -105v-494q0 -82 33 -122 t82 -40l74 -2v-100h-54q-134 0 -208 61t-74 213l2 461q0 63 -32.5 106.5t-75 60.5t-87.5 17h-55z" />
<glyph unicode="|" horiz-adv-x="468" d="M164 -248v1843h141v-1843h-141z" />
<glyph unicode="}" horiz-adv-x="768" d="M102 -201l74 2q49 0 82 40t33 122v494q0 61 19.5 105t48 64t56.5 30.5t48.5 14.5t21.5 7v2q-1 3 -21.5 6.5t-48.5 14t-56.5 30.5t-48 64t-19.5 106v494q0 82 -33 121.5t-82 39.5l-74 3v100h54q134 0 208 -61.5t74 -213.5l-2 -460q0 -92 61 -138.5t134 -46.5h55v-121h-55 q-45 0 -87.5 -17t-75 -60.5t-32.5 -106.5l2 -461q0 -152 -74 -213t-208 -61h-54v100z" />
<glyph unicode="&#xa1;" horiz-adv-x="598" d="M205 1341q0 38 28 66.5t66 28.5t66 -28.5t28 -66.5t-28 -66t-66 -28t-66 28t-28 66zM217 -14l19 1040h122l23 -1040h-164z" />
<glyph unicode="&#xab;" horiz-adv-x="1089" d="M143 541v102l404 393l31 -127l-297 -317l297 -318l-31 -127zM512 541v102l403 393l31 -127l-297 -317l297 -318l-31 -127z" />
<glyph unicode="&#xad;" d="M123 580v114h567v-114h-567z" />
<glyph unicode="&#xb4;" horiz-adv-x="1112" d="M571 1128l230 304l164 -23l-320 -295z" />
<glyph unicode="&#xbb;" horiz-adv-x="1089" d="M143 274l297 318l-297 317l31 127l404 -393v-102l-404 -394zM512 274l297 318l-297 317l31 127l403 -393v-102l-403 -394z" />
<glyph unicode="&#xbf;" horiz-adv-x="772" d="M102 98l54 92q79 -81 233 -81q51 2 89.5 20t57.5 40.5t30 51.5t13.5 46.5t2.5 33.5q0 58 -31.5 116.5t-77.5 105t-92 88.5t-80 81.5t-37 69.5q-2 23 -2 110v156h123v-162q0 -47 38 -100t91.5 -103t107.5 -103.5t92 -120.5t38 -136q0 -154 -100 -234.5t-269 -82.5 q-97 0 -174 35t-107 77zM233 1364q0 38 28.5 66t66.5 28t66 -28t28 -66t-28 -66t-66 -28t-66.5 28t-28.5 66z" />
<glyph unicode="&#xd7;" horiz-adv-x="1271" d="M102 86l455 453l-455 454l84 86l455 -454l455 454l84 -86l-455 -454l455 -453l-84 -86l-455 455l-455 -455z" />
<glyph unicode="&#xf7;" horiz-adv-x="1269" d="M143 580v114h901v-114h-901zM520 305q0 31 21.5 53.5t52.5 22.5t53.5 -22.5t22.5 -53.5t-22.5 -52.5t-53.5 -21.5t-52.5 21.5t-21.5 52.5zM520 946q0 31 21.5 53.5t52.5 22.5t53.5 -22.5t22.5 -53.5q0 -32 -22.5 -53t-53.5 -21t-52.5 21t-21.5 53z" />
<glyph unicode="&#x2000;" horiz-adv-x="829" />
<glyph unicode="&#x2001;" horiz-adv-x="1659" />
<glyph unicode="&#x2002;" horiz-adv-x="829" />
<glyph unicode="&#x2003;" horiz-adv-x="1659" />
<glyph unicode="&#x2004;" horiz-adv-x="553" />
<glyph unicode="&#x2005;" horiz-adv-x="414" />
<glyph unicode="&#x2006;" horiz-adv-x="276" />
<glyph unicode="&#x2007;" horiz-adv-x="276" />
<glyph unicode="&#x2008;" horiz-adv-x="207" />
<glyph unicode="&#x2009;" horiz-adv-x="331" />
<glyph unicode="&#x200a;" horiz-adv-x="92" />
<glyph unicode="&#x2010;" d="M123 580v114h567v-114h-567z" />
<glyph unicode="&#x2011;" d="M123 580v114h567v-114h-567z" />
<glyph unicode="&#x2012;" d="M123 580v114h567v-114h-567z" />
<glyph unicode="&#x2013;" horiz-adv-x="1269" d="M123 580v114h1024v-114h-1024z" />
<glyph unicode="&#x2014;" horiz-adv-x="1781" d="M123 580v114h1536v-114h-1536z" />
<glyph unicode="&#x2018;" horiz-adv-x="495" d="M111 1016l186 438l76 -29l-97 -442z" />
<glyph unicode="&#x2019;" horiz-adv-x="311" d="M61 1012l97 442l145 -33l-166 -438z" />
<glyph unicode="&#x201a;" horiz-adv-x="497" d="M123 -297l96 442l166 -32l-186 -439z" />
<glyph unicode="&#x201c;" horiz-adv-x="700" d="M51 1016l187 438l75 -29l-96 -442zM336 1016l186 438l76 -29l-96 -442z" />
<glyph unicode="&#x201d;" horiz-adv-x="557" d="M-41 1012l96 442l166 -33l-186 -438zM244 1012l96 442l166 -33l-187 -438z" />
<glyph unicode="&#x201e;" horiz-adv-x="669" d="M123 -297l96 442l166 -32l-186 -439zM408 -297l96 442l166 -32l-187 -439z" />
<glyph unicode="&#x2022;" horiz-adv-x="589" d="M78 643q0 88 63.5 151.5t151.5 63.5q89 0 153 -63.5t64 -151.5q0 -89 -64 -153t-153 -64q-88 0 -151.5 64t-63.5 153z" />
<glyph unicode="&#x2026;" horiz-adv-x="1681" d="M246 82q0 38 28 66t66 28t66 -28t28 -66t-28 -66t-66 -28t-66 28t-28 66zM786 82q0 38 28.5 66t66.5 28t66 -28t28 -66t-28 -66t-66 -28t-66.5 28t-28.5 66zM1329 82q0 38 28 66t66 28t66.5 -28t28.5 -66t-28.5 -66t-66.5 -28t-66 28t-28 66z" />
<glyph unicode="&#x202f;" horiz-adv-x="331" />
<glyph unicode="&#x2039;" horiz-adv-x="720" d="M143 541v102q68 66 202.5 197t201.5 196q4 -18 15.5 -63t15.5 -64l-297 -317l297 -318q-4 -18 -15.5 -63t-15.5 -64z" />
<glyph unicode="&#x203a;" horiz-adv-x="720" d="M143 274l297 318l-297 317l31 127l404 -393v-102l-404 -394z" />
<glyph unicode="&#x205f;" horiz-adv-x="414" />
<glyph unicode="&#x2122;" horiz-adv-x="1497" d="M115 1096v174h528v-174h-68l-22 84h-119v-592h-110v592h-129q-15 -51 -17 -84h-63zM666 1204v66h198l195 -482l219 482h100v-682h-106v452l-197 -452h-55l-182 467v-467h-82v598z" />
<glyph unicode="&#x25fc;" horiz-adv-x="1024" d="M0 0v1024h1024v-1024h-1024z" />
</font>
</defs>
</svg>
