<?xml version="1.0" standalone="no"?>
<!DOCTYPE svg PUBLIC "-//W3C//DTD SVG 1.1//EN" "http://www.w3.org/Graphics/SVG/1.1/DTD/svg11.dtd" >
<svg xmlns="http://www.w3.org/2000/svg" xmlns:xlink="http://www.w3.org/1999/xlink" version="1.1">
<metadata></metadata>
<defs>
<font id="platan_bgbold" horiz-adv-x="811" >
<font-face units-per-em="2048" ascent="1536" descent="-512" />
<missing-glyph horiz-adv-x="512" />
<glyph horiz-adv-x="0" />
<glyph horiz-adv-x="682" />
<glyph unicode=" "  horiz-adv-x="512" />
<glyph unicode="&#x09;" horiz-adv-x="512" />
<glyph unicode="&#xa0;" horiz-adv-x="512" />
<glyph unicode="!" horiz-adv-x="598" d="M178 1434h238l-31 -1039h-178zM180 100q0 46 34.5 80.5t80.5 34.5t80.5 -34.5t34.5 -80.5t-34.5 -80t-80.5 -34t-80.5 34t-34.5 80z" />
<glyph unicode="&#x22;" horiz-adv-x="702" d="M92 1430h201l-43 -429h-117zM410 1430h200l-43 -429h-116z" />
<glyph unicode="#" horiz-adv-x="1347" d="M92 303v164h246l94 276h-201v164h261l102 303h182l-102 -303h246l102 303h184l-102 -303h172v-164h-232l-88 -276h185v-164h-240l-104 -303h-195l105 303h-234l-104 -303h-193l105 303h-189zM528 467h236l94 276h-240z" />
<glyph unicode="%" horiz-adv-x="1929" d="M102 993q0 203 93.5 328t236.5 125q150 0 245 -127t95 -326q0 -82 -21 -160.5t-61.5 -144.5t-107.5 -106.5t-150 -40.5q-145 0 -237.5 128.5t-92.5 323.5zM272 1010q0 -334 164 -334q168 0 168 317q-7 151 -45 233.5t-123 82.5q-83 0 -123.5 -82t-40.5 -217zM614 -25 l519 1475h174l-516 -1475h-177zM1157 432q0 203 93.5 328t236.5 125q150 0 245 -127t95 -326q0 -82 -21 -160.5t-61.5 -144.5t-107.5 -106.5t-150 -40.5q-145 0 -237.5 128.5t-92.5 323.5zM1327 449q0 -334 164 -334q168 0 168 317q-7 151 -45 233.5t-123 82.5 q-83 0 -123.5 -82t-40.5 -217z" />
<glyph unicode="'" horiz-adv-x="415" d="M109 1430h200l-43 -429h-116z" />
<glyph unicode="(" horiz-adv-x="720" d="M61 666q0 82 7 162t28 184.5t55.5 199t95.5 196t142 185.5h229q-96 -104 -164.5 -230t-102 -251.5t-48 -232t-14.5 -209.5t14.5 -209.5t48 -232t102 -251t164.5 -229.5h-229q-81 84 -142 185t-95.5 194t-55.5 196t-28 182t-7 161z" />
<glyph unicode=")" horiz-adv-x="720" d="M61 -252q96 104 164.5 229.5t102.5 251t48.5 232t14.5 209.5t-14.5 210t-48.5 232t-102.5 251t-164.5 230h230q81 -84 141.5 -186t95 -196t56 -198.5t28 -184.5t6.5 -162q0 -579 -327 -918h-230z" />
<glyph unicode="*" horiz-adv-x="903" d="M123 788l176 134l-172 172l80 133l162 -168v227h151v-227l164 168l82 -133l-174 -172l176 -134l-82 -149l-166 152v-203h-151v200l-164 -149z" />
<glyph unicode="+" horiz-adv-x="1210" d="M111 557v160h405v426h160v-426h424v-160h-424v-424h-160v424h-405z" />
<glyph unicode="," horiz-adv-x="542" d="M74 -293l98 449l207 -41l-195 -449z" />
<glyph unicode="-" d="M111 557v160h589v-160h-589z" />
<glyph unicode="." horiz-adv-x="557" d="M164 100q0 46 34.5 80.5t80.5 34.5t80 -34.5t34 -80.5t-34 -80t-80 -34t-80.5 34t-34.5 80z" />
<glyph unicode="/" horiz-adv-x="716" d="M45 -244l457 1833h211l-447 -1833h-221z" />
<glyph unicode="0" horiz-adv-x="1265" d="M127 717q0 351 134.5 546t371.5 195q247 0 376.5 -192.5t129.5 -548.5q0 -348 -137.5 -545t-368.5 -197q-237 0 -371.5 195t-134.5 547zM403 717q0 -310 50.5 -449t179.5 -139t179 139t50 449t-50 449t-179 139t-179.5 -139t-50.5 -449z" />
<glyph unicode="1" horiz-adv-x="884" d="M20 1194l336 240h262v-1434h-262v1217l-272 -144z" />
<glyph unicode="2" horiz-adv-x="1181" d="M82 0v178q29 23 51 41.5t94.5 84t128.5 122.5t130.5 144t123.5 162.5t84 163t35 161.5q0 110 -62.5 170.5t-136.5 60.5q-71 0 -134.5 -48t-106.5 -107l-139 96q69 109 179 169t230 60q205 0 323 -108t113 -283q-2 -80 -40.5 -172.5t-90 -168.5t-129.5 -164t-132 -140.5 t-126 -120t-86 -80.5h475l101 150h112l-84 -371h-913z" />
<glyph unicode="3" horiz-adv-x="1079" d="M92 1231q62 102 166.5 164.5t239.5 62.5q190 0 310 -91t120 -257q0 -117 -74 -215t-197 -125v-8q58 -11 110.5 -34.5t101.5 -64t78.5 -106t29.5 -147.5q0 -131 -68 -231t-183.5 -152t-260.5 -52q-108 0 -206.5 36t-158.5 85l56 152q120 -113 303 -113q49 0 89.5 16 t67.5 42.5t45.5 62t26.5 73.5t8 77q0 45 -15.5 89.5t-46.5 85t-85.5 66t-124.5 25.5h-117v174h101q111 0 178 70.5t67 166.5q0 91 -55 152t-141 61q-77 0 -132 -40t-112 -115z" />
<glyph unicode="4" horiz-adv-x="1249" d="M102 387v172l600 875h269v-873h186v-174h-186v-387h-262v387h-607zM313 561h396v563h-7z" />
<glyph unicode="5" horiz-adv-x="1128" d="M123 74l51 164q107 -86 250 -86q126 0 211.5 80t85.5 225q0 122 -73.5 195t-190.5 73q-126 0 -232 -90h-90l47 799h774l-51 -222h-565l-23 -344q83 39 232 43q89 2 168.5 -22.5t145.5 -74.5t104 -138.5t37 -204.5q-1 -120 -49.5 -216.5t-127 -155.5t-173 -90.5 t-195.5 -31.5q-186 0 -336 97z" />
<glyph unicode="6" horiz-adv-x="1177" d="M104 666q4 376 157.5 584t408.5 208q118 0 217.5 -38t146.5 -95l-100 -129q-108 88 -240 88q-42 0 -86 -15t-92 -52.5t-85 -93t-61 -145.5t-24 -200q69 78 159.5 114t186.5 28q97 -7 174 -46t123.5 -100t70.5 -136t23 -157q-1 -95 -33.5 -184t-91.5 -161.5t-152.5 -116.5 t-205.5 -44q-116 0 -205.5 39t-144 103t-88.5 155.5t-46.5 186.5t-11.5 207zM389 475q0 -155 54 -240.5t159 -84.5q100 1 153.5 86.5t53.5 209.5q0 138 -64 213t-143 70q-83 -5 -148 -73.5t-65 -180.5z" />
<glyph unicode="7" horiz-adv-x="1017" d="M72 1063l86 371h839v-201l-626 -1233h-230l650 1212h-506l-101 -149h-112z" />
<glyph unicode="8" horiz-adv-x="1175" d="M102 399q0 142 61.5 235t160.5 140q-78 46 -129.5 123.5t-51.5 189.5q0 78 28 142.5t73 105.5t104 69t119 40t121 12q62 0 122.5 -12t119.5 -40t103 -69.5t71.5 -105t27.5 -142.5q0 -112 -52 -189.5t-130 -123.5q99 -48 161 -140.5t62 -234.5q0 -90 -30 -163.5t-78 -121 t-112.5 -80t-130.5 -46t-134 -13.5q-69 0 -135.5 13.5t-131 46t-112.5 80t-77.5 121t-29.5 163.5zM383 399q0 -121 60.5 -185t144.5 -64q83 0 144 65t61 184q0 118 -52 197.5t-153 79.5q-68 0 -116 -40.5t-68.5 -101.5t-20.5 -135zM424 1087q0 -110 39.5 -173.5t124.5 -63.5 q83 0 123.5 64.5t40.5 172.5q0 82 -44.5 138.5t-119.5 56.5t-119.5 -56.5t-44.5 -138.5z" />
<glyph unicode="9" horiz-adv-x="1187" d="M104 952q1 94 33.5 183.5t92 162t153 116.5t205.5 44q98 0 176 -26.5t131.5 -75t91.5 -111.5t59 -143t29.5 -161t7.5 -173q-2 -188 -43.5 -338.5t-116 -250t-177.5 -152t-228 -52.5q-118 0 -217 38t-147 96q16 21 50 64.5t50 64.5q108 -88 240 -88q41 0 85 15t92 52.5 t85.5 93t61.5 145t24 199.5q-68 -79 -158 -114t-188 -27q-129 9 -220 73.5t-132 158.5t-40 206zM379 987q0 -138 64 -212.5t143 -69.5q83 5 144.5 68.5t68.5 184.5q8 140 -50.5 236t-162.5 90q-103 -6 -155 -89.5t-52 -207.5z" />
<glyph unicode=":" horiz-adv-x="491" d="M131 100q0 46 34.5 80.5t80.5 34.5t80 -34.5t34 -80.5t-34 -80t-80 -34t-80.5 34t-34.5 80zM131 909q0 46 34.5 80.5t80.5 34.5t80 -34.5t34 -80.5t-34 -80t-80 -34t-80.5 34t-34.5 80z" />
<glyph unicode=";" horiz-adv-x="559" d="M74 -293l110 -41l195 449l-207 41zM162 907q0 47 35 82t82 35t81.5 -35t34.5 -82t-34.5 -81.5t-81.5 -34.5t-82 34.5t-35 81.5z" />
<glyph unicode="&#x3c;" horiz-adv-x="1239" d="M143 545v184l920 504l33 -156l-803 -440l801 -440l-33 -156z" />
<glyph unicode="=" horiz-adv-x="1062" d="M111 385v158h841v-158h-841zM111 731v158h841v-158h-841z" />
<glyph unicode="&#x3e;" horiz-adv-x="1239" d="M143 1077l33 156l920 -504v-184l-918 -504l-33 156l801 440z" />
<glyph unicode="?" horiz-adv-x="772" d="M86 1327q35 50 116.5 90.5t180.5 40.5q194 0 291 -75t96 -248q-1 -68 -38 -135t-90 -120t-105.5 -101.5t-89.5 -96t-37 -86.5v-180h-168v174q0 83 2 106q4 32 36.5 72t76 80.5t86.5 84t72.5 95.5t29.5 102q0 14 -1.5 27.5t-10.5 38.5t-24 43t-46.5 33.5t-73.5 17.5 q-137 0 -231 -96q-13 22 -36.5 66.5t-35.5 66.5zM215 100q0 47 34.5 82t80.5 35q47 0 81.5 -35t34.5 -82q0 -46 -34.5 -80t-81.5 -34q-46 0 -80.5 34t-34.5 80z" />
<glyph unicode="@" horiz-adv-x="1748" d="M123 590q0 161 59 302t161.5 242t248.5 159.5t313 58.5q158 0 293 -56t228.5 -154t146.5 -234t53 -292q0 -54 -6.5 -106t-15.5 -92.5t-23.5 -82t-26.5 -68.5t-30 -58.5t-27 -45.5t-24.5 -35.5t-16.5 -23.5h-321q1 0 2 1t2 1h-78q-5 15 -14.5 42.5t-14.5 41.5 q-111 -100 -262 -100q-58 0 -117.5 29.5t-111.5 84.5t-84.5 145.5t-32.5 199.5q0 126 32 228t87 166.5t126 99t152 34.5q61 0 131 -30.5t121 -83.5q9 13 26.5 38t26.5 37h113v-805l117 -30q49 66 85 166t36 219q0 181 -65.5 322t-196 224t-308.5 83q-177 0 -321.5 -82 t-227 -226.5t-82.5 -320.5q0 -177 72 -322.5t207.5 -232t310.5 -86.5q117 0 232 39q7 -20 20.5 -61t20.5 -62q-155 -56 -277 -56q-160 0 -299 61.5t-235 167t-150.5 249.5t-54.5 305zM651 575q0 -142 61 -229.5t154 -87.5q20 0 39 4.5t32.5 10.5t29.5 16.5t23.5 17t20.5 18 t15 13.5v489q-26 39 -69.5 63.5t-96.5 24.5q-58 0 -100 -27.5t-65 -77t-33.5 -107.5t-10.5 -128z" />
<glyph unicode="A" horiz-adv-x="1273" d="M29 0l415 1276l-208 45v113h579l430 -1434h-272l-152 492h-426l-112 -340l147 -39v-113h-401zM444 666h330l-156 520h-6z" />
<glyph unicode="B" horiz-adv-x="1196" d="M-2 1321v113h514q80 0 150.5 -10t140 -35.5t119 -65t80 -104t30.5 -146.5q0 -116 -60.5 -197t-164.5 -118v-8q147 -34 225 -125.5t78 -214.5q0 -212 -144.5 -311t-451.5 -99h-328v1280zM449 174h110q133 0 201.5 60t68.5 167q0 43 -11.5 83t-38 79.5t-79 63.5t-125.5 24 h-126v-477zM449 825h124q82 0 130.5 68.5t48.5 165.5q0 81 -51 141t-148 60h-104v-435z" />
<glyph unicode="C" horiz-adv-x="1263" d="M88 748q4 159 56.5 295t139.5 228q86 91 204 141q109 46 229 46h20q249 -6 389 -82v-334h-112l-53 207q-78 43 -207 43q-65 0 -120.5 -16.5t-105 -55.5t-84.5 -100t-55 -156t-20 -216q0 -289 105 -444.5t278 -160.5h9q145 0 296 119l80 -121q-198 -166 -441 -166h-14 q-92 2 -177.5 30.5t-163.5 89.5t-135 149t-89 218q-29 119 -29 259v27z" />
<glyph unicode="D" horiz-adv-x="1378" d="M-2 1321v113h580q119 0 225 -27.5t196 -84t155 -138t101.5 -195t36.5 -248.5q0 -162 -42 -291.5t-110 -211.5t-160.5 -137.5t-187.5 -78t-196 -22.5h-410v1280zM449 174h147q195 0 307 154q109 149 109 400v13q-2 103 -31.5 195.5t-83.5 165t-139 115.5t-189 43h-120 v-1086z" />
<glyph unicode="E" horiz-adv-x="1087" d="M-2 1321v113h987v-347h-108l-50 173h-378v-445h380v-174h-380v-467h552l-14 -174h-801v1280z" />
<glyph unicode="F" horiz-adv-x="1126" d="M-2 1321v113h1053v-347h-113l-45 173h-444v-445h315l35 119h112v-412h-112l-35 119h-315v-641h-263v1280z" />
<glyph unicode="G" horiz-adv-x="1329" d="M88 750q4 201 89 364t231 254q144 90 317 90h8q251 -3 414 -86v-330h-115l-53 203q-60 47 -229 47q-116 0 -204 -75t-132.5 -197.5t-44.5 -271.5q0 -292 107 -448.5t298 -156.5q39 0 92.5 14t73.5 31v318l-190 51v107h452v-543q-106 -76 -222.5 -111t-272.5 -35 q-102 0 -194.5 30t-171.5 93t-136 153t-89 218q-28 117 -28 255v26z" />
<glyph unicode="H" horiz-adv-x="1437" d="M-2 1321v113h451v-596h540v596h262v-1434h-262v664h-540v-664h-263v1280z" />
<glyph unicode="I" horiz-adv-x="614" d="M166 0v1434h262v-1434h-262z" />
<glyph unicode="J" horiz-adv-x="749" d="M-33 27l49 168q59 -19 103 -19q98 3 140 76t42 246v782l-188 41v113h450v-807q0 -76 -2.5 -133.5t-11.5 -129t-24.5 -123.5t-44 -105t-68 -86t-98 -54t-132.5 -21q-45 0 -120.5 16.5t-94.5 35.5z" />
<glyph unicode="K" horiz-adv-x="1415" d="M-2 1321v113h451v-611l503 611h238l-461 -545l694 -889h-333l-535 686l-106 -131v-555h-263v1280z" />
<glyph unicode="L" horiz-adv-x="1015" d="M-2 1321v113h451v-1260h542v-174h-805v1280z" />
<glyph unicode="M" horiz-adv-x="1746" d="M-4 1321v113h463l422 -994l415 994h265v-1434h-263v977h-8l-403 -977h-99l-419 977h-9v-977h-174v1280z" />
<glyph unicode="N" horiz-adv-x="1370" d="M-4 1321v113h391l623 -975v975h174v-1434h-193l-631 985v-985h-174v1280z" />
<glyph unicode="O" horiz-adv-x="1409" d="M86 713q0 179 48.5 322t133 234.5t196.5 140t241 48.5t241 -48.5t196 -140t132.5 -234.5t48.5 -322t-48 -321t-133 -232t-196 -137.5t-241 -47.5t-241.5 47.5t-196 137.5t-133 232t-48.5 321zM367 713q0 -114 20.5 -214.5t60.5 -181.5t106.5 -128.5t150.5 -47.5 t150.5 47.5t106 128.5t60 181.5t20.5 214.5t-20.5 215.5t-60 184t-106 131t-150.5 48.5t-150.5 -48.5t-106.5 -131t-60.5 -184t-20.5 -215.5z" />
<glyph unicode="P" horiz-adv-x="1146" d="M-2 1321v113h537q239 0 385 -104t149 -298v-9q0 -211 -137 -325q-140 -116 -377 -116h-106v-582h-263v1280zM449 756h106q115 0 175 75q58 73 58 195v8q-2 103 -60.5 164.5t-172.5 61.5h-106v-504z" />
<glyph unicode="Q" horiz-adv-x="1411" d="M86 713q0 185 51 330.5t138.5 234.5t196.5 134.5t233 45.5q98 0 188 -28t169 -88t137.5 -146t92 -210t33.5 -273q0 -151 -34.5 -276t-95.5 -211t-138 -142.5t-168 -83.5q17 -32 47.5 -58.5t63 -41.5t68.5 -26.5t63.5 -16.5t48.5 -8t22 -3v-92h-383l-235 232 q-72 11 -141.5 44.5t-134.5 94.5t-114 142t-78.5 196.5t-29.5 249.5zM367 713q0 -256 90.5 -414t247.5 -158t248 158t91 414q0 168 -40 298.5t-117.5 205.5t-181.5 75t-181.5 -75t-117 -205t-39.5 -299z" />
<glyph unicode="R" horiz-adv-x="1273" d="M-2 1321v113h594q125 0 219.5 -34t148.5 -92.5t80.5 -129t26.5 -152.5q0 -126 -67 -229.5t-169 -145.5l388 -651h-299l-377 625h-94v-625h-263v1280zM449 799h122q85 0 150 65t65 160q0 101 -49 168.5t-145 67.5h-143v-461z" />
<glyph unicode="S" horiz-adv-x="1157" d="M96 1069q0 180 127 285.5t342 105.5q94 0 204 -18t177 -49v-306h-112l-60 162q-26 16 -81 26.5t-103 10.5q-91 0 -159.5 -50t-68.5 -124q0 -50 40 -89t116 -79q31 -16 100.5 -48.5t128 -63t105.5 -62.5q101 -69 155 -147.5t54 -194.5q0 -92 -29.5 -168.5t-79 -128.5 t-117 -87.5t-142.5 -52t-156 -16.5q-236 0 -426 88v330h112l58 -170q87 -73 225 -73q42 0 79.5 5.5t76.5 20t66.5 37.5t45 62t17.5 90q0 113 -125 196q-53 34 -184.5 94t-190.5 97q-195 119 -195 317z" />
<glyph unicode="T" horiz-adv-x="1148" d="M-16 1087v347h1130v-347h-113l-45 173h-276v-1260h-262v1260h-277l-45 -173h-112z" />
<glyph unicode="U" horiz-adv-x="1404" d="M-2 1321v113h451v-867q0 -117 25 -201t70 -129.5t97.5 -66t116.5 -20.5t116 20.5t96 66t68.5 129.5t24.5 201v867h174v-869q0 -290 -119 -440t-360 -150q-71 0 -134.5 10t-130.5 34t-120.5 68t-96.5 107t-66.5 158t-23.5 213v715z" />
<glyph unicode="V" horiz-adv-x="1325" d="M-80 1321v113h416l383 -1047l330 1047h190l-465 -1434h-186l-479 1280z" />
<glyph unicode="W" horiz-adv-x="1873" d="M-12 1321v113h415l267 -932l252 932h165l269 -932l252 932h180l-387 -1434h-176l-260 924l-250 -924h-176l-363 1280z" />
<glyph unicode="X" horiz-adv-x="1282" d="M-16 1321v113h405l275 -488l311 488h209l-424 -660l436 -774h-297l-328 578l-362 -578h-215l479 750l-299 530z" />
<glyph unicode="Y" horiz-adv-x="1320" d="M-80 1321v113h402l360 -566l350 566h203l-475 -762v-672h-262v670l-389 610z" />
<glyph unicode="Z" horiz-adv-x="1220" d="M-16 158l794 1102h-522l-45 -173h-113v347h979l37 -158l-797 -1102h603l98 170h92l-72 -344h-1015z" />
<glyph unicode="[" horiz-adv-x="612" d="M102 -248v1843h447v-114l-221 -51v-1510l223 -53v-115h-449z" />
<glyph unicode="\" horiz-adv-x="688" d="M45 1589h150l456 -1833h-159z" />
<glyph unicode="]" horiz-adv-x="612" d="M61 -133l224 53v1510l-222 51v114h447v-1843h-449v115z" />
<glyph unicode="^" horiz-adv-x="1177" d="M197 700l393 736h164l424 -736l-146 -32l-360 620l-322 -624z" />
<glyph unicode="_" horiz-adv-x="1107" d="M0 -86h1108v-141h-1108v141z" />
<glyph unicode="`" horiz-adv-x="1705" d="M551 1409l205 31l229 -312l-115 -22z" />
<glyph unicode="a" horiz-adv-x="1015" d="M72 254q0 96 66 176.5t169 125t217 46.5q10 0 26.5 1.5t30 1.5t25.5 -3v98q0 78 -43.5 125t-124.5 47q-127 0 -237 -94l-88 111q87 80 189 118q95 35 177 35h13q60 -2 110 -11.5t99 -33t82.5 -60t54 -96.5t20.5 -139v-567l148 -35v-100h-373l-27 127q-124 -145 -268 -145 q-112 0 -189 72.5t-77 199.5zM330 279q0 -52 39 -79.5t80 -27.5q50 0 95 38.5t62 80.5v178q-16 4 -47 4q-93 0 -161 -54t-68 -140z" />
<glyph unicode="b" horiz-adv-x="1169" d="M-4 1339v95h426v-463q54 38 128 56q63 15 124 15h20q78 -4 147.5 -36t125 -90.5t88 -153t32.5 -213.5q0 -135 -34 -244.5t-92 -179t-133 -106.5t-160 -37q-73 0 -133.5 22t-131.5 74l-55 -78h-178v1298zM422 246q75 -92 176 -92q61 0 106.5 30t70.5 83.5t36.5 116.5 t11.5 138q0 151 -66 244.5t-165 93.5q-98 0 -170 -67v-547z" />
<glyph unicode="c" horiz-adv-x="958" d="M76 494q0 127 39 232t105.5 173t154 105.5t184.5 37.5q159 0 289 -57v-295h-115l-33 166q-49 27 -118 27q-67 0 -116.5 -37t-75.5 -97.5t-38 -123t-12 -125.5q0 -160 65.5 -259.5t200.5 -99.5q99 0 191 76l67 -100q-138 -135 -348 -135q-53 0 -107.5 12.5t-116 48 t-108 90t-77.5 148t-31 213.5z" />
<glyph unicode="d" horiz-adv-x="1163" d="M76 475q0 135 37.5 244.5t101 179t143 106.5t166.5 37q122 0 219 -63v319l-168 39v97h420v-1299l148 -35v-100h-361l-30 92q-119 -110 -283 -110q-77 0 -147 31.5t-125.5 91t-88 155.5t-32.5 215zM342 502q0 -151 65 -244.5t164 -93.5q21 0 42 5t35.5 11.5t31.5 17.5 t25 18t21.5 19.5t16.5 14.5v547q-26 30 -73.5 51.5t-104.5 21.5q-61 0 -106 -30t-69.5 -83.5t-36 -116.5t-11.5 -138z" />
<glyph unicode="e" horiz-adv-x="993" d="M76 498q4 137 40.5 243t99 171.5t143.5 98.5q76 31 167 31h11q195 -3 291 -129t96 -338q0 -19 -4 -65h-578q-4 -40 -4 -61q0 -139 77.5 -222.5t180.5 -85.5h9q60 -1 124 25q69 28 109 74l69 -99q-49 -63 -144 -110.5t-204 -48.5h-10q-57 0 -113 11q-60 12 -127 47.5 t-117 90.5t-83 150t-33 217zM356 670h344q0 88 -43 150.5t-122 62.5q-74 0 -119 -60t-60 -153z" />
<glyph unicode="f" horiz-adv-x="729" d="M0 864v160h168q4 114 23.5 192t62 134t113.5 82t176 26q9 1 19 1q34 0 84 -7q66 -10 87 -18l-14 -134q-34 3 -65 3q-26 0 -50 -2q-53 -5 -92 -22t-63.5 -55t-28.5 -98v-102h278v-160h-278v-864h-252v864h-168z" />
<glyph unicode="g" horiz-adv-x="1161" d="M76 475q0 135 36 244.5t96.5 179t137 106.5t160.5 37q158 0 260 -102l43 84h184v-885q0 -143 -37 -251.5t-102.5 -173t-148.5 -96.5t-181 -32q-214 0 -362 135l80 115q25 -20 56 -39.5t97 -41.5q54 -18 104 -18q12 0 23 1q110 8 164.5 78t54.5 233q-57 -37 -131 -53 q-67 -14 -126 -14h-15q-78 4 -147.5 36t-125 90.5t-88 153t-32.5 213.5zM340 502q0 -151 66 -244.5t165 -93.5q91 0 170 61v557q-22 36 -73 62q-49 24 -106 24h-5q-60 -1 -103.5 -31t-67.5 -82.5t-35 -115t-11 -137.5z" />
<glyph unicode="h" horiz-adv-x="1173" d="M-4 1337v97h420v-482q40 31 117 60.5t169 29.5q69 0 122.5 -19.5t100 -66t72 -135.5t25.5 -215v-606h-252v537q0 50 -1.5 84t-6 74t-15 65.5t-26 48.5t-41 34t-59.5 11q-15 0 -30.5 -2.5t-30.5 -8t-29 -11.5t-28 -13.5t-25 -14t-22.5 -14.5t-18 -13t-13.5 -10.5t-8 -6.5 v-760h-252v1298z" />
<glyph unicode="i" horiz-adv-x="608" d="M12 928v96h420v-1024h-252v889zM164 1305q0 59 40.5 94t88.5 35q66 0 97.5 -40t31.5 -89q0 -60 -40.5 -94.5t-88.5 -34.5q-55 0 -92 41t-37 88z" />
<glyph unicode="j" horiz-adv-x="620" d="M-86 -414l2 164q52 5 93 24.5t70 48.5t50 73.5t33.5 92t20 113t10 127t2.5 142.5v518l-168 39v96h419v-649q0 -121 -13 -223.5t-35 -177t-54 -135t-65.5 -100.5t-75.5 -69.5t-78 -45t-78 -24.5t-71 -11.5t-62 -2.5zM178 1305q0 53 38 91t91 38t91 -38t38 -91t-38 -91 t-91 -38t-91 38t-38 91z" />
<glyph unicode="k" horiz-adv-x="1089" d="M-4 1337v97h420v-830l360 420h223l-352 -393l443 -631h-302l-307 434l-65 -69v-365h-252v1298z" />
<glyph unicode="l" horiz-adv-x="587" d="M-4 1337v97h420v-1299l168 -39v-96h-420v1298z" />
<glyph unicode="m" horiz-adv-x="1714" d="M4 928v96h387l29 -86q109 104 246 104q92 0 161 -32.5t97 -81.5q50 45 137 79.5t168 34.5q98 0 163.5 -28.5t102.5 -88.5t52.5 -140.5t15.5 -196.5v-588h-252v567q0 114 -20 179t-51.5 86.5t-82.5 21.5q-38 0 -83.5 -20t-80.5 -62v-772h-252v567q0 117 -14.5 179.5 t-41.5 85t-77 22.5q-106 0 -184 -100v-754h-252v889z" />
<glyph unicode="n" horiz-adv-x="1181" d="M4 928v96h385l35 -86q62 53 140.5 78.5t142.5 25.5q58 0 104.5 -11.5t88.5 -42t69.5 -79t44 -126t16.5 -179.5v-604h-252v537q0 50 -1.5 84t-6 74t-15 65.5t-26 48.5t-41 34t-59.5 11q-60 0 -121 -39.5t-84 -69.5v-745h-252v889z" />
<glyph unicode="o" horiz-adv-x="1099" d="M76 510q0 110 27.5 200.5t73 151t107 102t127.5 60t136 18.5t136 -18.5t127.5 -60t107 -102t73 -151t27.5 -200.5t-27.5 -200.5t-73 -151t-107 -102.5t-127.5 -60.5t-136 -18.5t-136 18.5t-127.5 60.5t-107 102.5t-73 151t-27.5 200.5zM340 510q0 -73 10.5 -136.5 t33 -120t64.5 -89.5t99 -33t99 33t64.5 89.5t33 120t10.5 136.5t-10.5 136.5t-33 120t-64.5 89.5t-99 33t-99 -33t-64.5 -89.5t-33 -120t-10.5 -136.5z" />
<glyph unicode="p" horiz-adv-x="1163" d="M-4 928v96h383l29 -94q127 112 269 112h17q78 -3 146.5 -35t123 -91t86 -153.5t31.5 -213.5q0 -135 -37.5 -244.5t-101 -179t-143 -106.5t-166.5 -37q-123 0 -217 61v-457h-252v1303zM416 223q88 -69 176 -69q61 0 106.5 30t70.5 83.5t36.5 116.5t11.5 138 q0 151 -66 244.5t-165 93.5q-54 0 -100 -28t-70 -60v-549z" />
<glyph unicode="q" horiz-adv-x="1161" d="M76 475q0 135 36 244.5t97.5 179t142 106.5t172.5 37q137 0 240 -98l45 80h184v-1300l168 -46v-92h-420v469q-51 -38 -130 -57q-71 -16 -130 -16h-12q-78 4 -147.5 36t-125 90.5t-88 153t-32.5 213.5zM340 502q0 -151 66 -244.5t165 -93.5q76 0 170 61v566 q-30 41 -78.5 60t-97.5 19q-61 0 -106.5 -30t-70.5 -83.5t-36.5 -116.5t-11.5 -138z" />
<glyph unicode="r" horiz-adv-x="815" d="M4 928v96h322l39 -135q25 55 71.5 90.5t86.5 46.5q37 10 69 10h6q58 -1 115.5 -24t83.5 -45l-58 -140q-42 21 -121 21t-136.5 -83.5t-57.5 -264.5v-500h-252v889z" />
<glyph unicode="s" horiz-adv-x="882" d="M111 758q0 126 94.5 205t247.5 79q179 0 301 -81l-56 -123q-36 18 -96 34q-56 15 -102 15h-6q-55 -2 -90 -30t-35 -73q0 -21 10 -39.5t36.5 -37.5t45 -30t64 -34.5t65.5 -34.5q51 -28 85 -52t69.5 -61t53 -85.5t17.5 -108.5q0 -80 -32.5 -142.5t-87 -100t-121.5 -57 t-142 -19.5q-182 0 -313 67v287h90l57 -168q72 -35 133 -35q23 0 47 5.5t49.5 18.5t41.5 40.5t16 64.5q0 55 -29.5 92t-103.5 74q-14 7 -50 24.5t-54.5 26.5t-50.5 28t-49.5 34t-40.5 39.5t-35 49t-20.5 58t-8.5 70.5z" />
<glyph unicode="t" horiz-adv-x="741" d="M-10 864v160h184l47 233h205v-233h264v-160h-264v-225q0 -351 20 -426.5t127 -75.5q36 0 60 8l22 -125q-37 -18 -113 -23q-54 -4 -94 -4q-16 0 -30 1q-52 3 -90.5 18t-64.5 33.5t-43.5 59.5t-26.5 70.5t-13.5 94t-5 103.5t-0.5 123v28v340h-184z" />
<glyph unicode="u" horiz-adv-x="1181" d="M-14 928v96h417v-537q0 -50 1.5 -84t6.5 -74t15 -66t26 -48.5t41.5 -33.5t59.5 -11q60 0 121 39.5t84 69.5v745h252v-889l147 -39v-96h-364l-35 86q-78 -67 -172 -92q-47 -12 -96 -12t-99 12q-239 61 -239 426v469z" />
<glyph unicode="v" horiz-adv-x="1017" d="M-68 928v96h377l230 -666l252 666h186l-416 -1024h-147l-314 889z" />
<glyph unicode="w" horiz-adv-x="1490" d="M-31 928v96h371l166 -608l194 608h193l205 -608l180 608h172l-317 -1024h-148l-233 655l-215 -655h-152l-256 889z" />
<glyph unicode="x" horiz-adv-x="989" d="M0 928v96h367l170 -313l196 313h201l-311 -467l325 -557h-297l-207 362l-233 -362h-203l348 518l-209 371z" />
<glyph unicode="y" horiz-adv-x="1054" d="M-29 928v96h377l227 -666l252 666h187l-451 -1110q-27 -67 -59.5 -119.5t-62.5 -86.5t-67 -58t-65 -36.5t-66.5 -19t-61.5 -7.5t-58 -1l-17 166q5 0 28.5 -0.5t43.5 -0.5t29 1q24 3 41 6.5t49 19t56 39.5t51.5 71.5t46.5 111.5l-322 889z" />
<glyph unicode="z" horiz-adv-x="980" d="M82 0v135l512 729h-324l-43 -155h-90v315h764v-160l-493 -704h364l78 155h90l-31 -315h-827z" />
<glyph unicode="{" horiz-adv-x="829" d="M61 588v182h76q71 0 122.5 45.5t51.5 138.5l-2 389q-1 81 18 140t48 92t74 52.5t87 25.5t97 6h115v-152l-95 -2q-49 0 -81.5 -40t-32.5 -122v-442q0 -52 -14 -92t-35.5 -61t-46.5 -35t-46.5 -18.5t-36.5 -8t-16 -6.5v-2q1 -3 16 -6.5t36.5 -8t46.5 -19t46.5 -35.5 t35.5 -60.5t14 -91.5v-443q0 -82 32.5 -121.5t81.5 -39.5l95 -3v-151h-115q-63 0 -120 19t-103.5 56.5t-74 99.5t-26.5 140l2 389q0 93 -52 139t-122 46h-76z" />
<glyph unicode="|" horiz-adv-x="489" d="M143 -248v1843h203v-1843h-203z" />
<glyph unicode="}" horiz-adv-x="829" d="M82 -150l94 3q49 0 82 39.5t33 121.5v443q0 61 19.5 105t48 64t56.5 30.5t48.5 14.5t21.5 7v2q-1 3 -21.5 6.5t-48.5 14t-56.5 30.5t-48 64t-19.5 106v442q0 82 -33 122t-82 40l-94 2v152h115q55 0 97 -6t87 -25.5t73.5 -52.5t47.5 -92t18 -140l-2 -389 q0 -93 51.5 -138.5t122.5 -45.5h76v-182h-76q-70 0 -122 -46t-52 -139l2 -389q1 -78 -26.5 -140t-74 -99.5t-103 -56.5t-119.5 -19h-115v151z" />
<glyph unicode="&#xa1;" horiz-adv-x="598" d="M205 1341q0 38 28 66.5t66 28.5t66 -28.5t28 -66.5t-28 -66t-66 -28t-66 28t-28 66zM217 -14l19 1040h122l23 -1040h-164z" />
<glyph unicode="&#xab;" horiz-adv-x="1105" d="M123 539v106l434 424l37 -168l-289 -309l289 -309l-37 -168zM512 539v106l434 424l37 -168l-289 -309l289 -309l-37 -168z" />
<glyph unicode="&#xad;" d="M111 557v160h589v-160h-589z" />
<glyph unicode="&#xb4;" horiz-adv-x="1112" d="M551 1128l229 312l205 -31l-319 -303z" />
<glyph unicode="&#xbb;" horiz-adv-x="1105" d="M123 283l289 309l-289 309l37 168l434 -424v-106l-434 -424zM512 283l289 309l-289 309l37 168l434 -424v-106l-434 -424z" />
<glyph unicode="&#xbf;" horiz-adv-x="772" d="M102 98l54 92q79 -81 233 -81q51 2 89.5 20t57.5 40.5t30 51.5t13.5 46.5t2.5 33.5q0 58 -31.5 116.5t-77.5 105t-92 88.5t-80 81.5t-37 69.5q-2 23 -2 110v156h123v-162q0 -47 38 -100t91.5 -103t107.5 -103.5t92 -120.5t38 -136q0 -154 -100 -234.5t-269 -82.5 q-97 0 -174 35t-107 77zM233 1364q0 38 28.5 66t66.5 28t66 -28t28 -66t-28 -66t-66 -28t-66.5 28t-28.5 66z" />
<glyph unicode="&#xd7;" horiz-adv-x="1271" d="M88 111l438 438l-438 440l111 113l440 -438l438 438l113 -113l-440 -440l436 -434l-109 -117l-438 440l-440 -440z" />
<glyph unicode="&#xf7;" horiz-adv-x="1245" d="M143 559v160h901v-160h-901zM508 289q0 38 25.5 65t62.5 27q38 0 65 -27t27 -65q0 -37 -27 -62.5t-65 -25.5q-37 0 -62.5 25.5t-25.5 62.5zM508 961q0 37 26 64.5t62 27.5q38 0 65 -27.5t27 -64.5q0 -38 -26.5 -63.5t-65.5 -25.5q-37 0 -62.5 25.5t-25.5 63.5z" />
<glyph unicode="&#x2000;" horiz-adv-x="829" />
<glyph unicode="&#x2001;" horiz-adv-x="1659" />
<glyph unicode="&#x2002;" horiz-adv-x="829" />
<glyph unicode="&#x2003;" horiz-adv-x="1659" />
<glyph unicode="&#x2004;" horiz-adv-x="553" />
<glyph unicode="&#x2005;" horiz-adv-x="414" />
<glyph unicode="&#x2006;" horiz-adv-x="276" />
<glyph unicode="&#x2007;" horiz-adv-x="276" />
<glyph unicode="&#x2008;" horiz-adv-x="207" />
<glyph unicode="&#x2009;" horiz-adv-x="331" />
<glyph unicode="&#x200a;" horiz-adv-x="92" />
<glyph unicode="&#x2010;" d="M111 557v160h589v-160h-589z" />
<glyph unicode="&#x2011;" d="M111 557v160h589v-160h-589z" />
<glyph unicode="&#x2012;" d="M111 557v160h589v-160h-589z" />
<glyph unicode="&#x2013;" horiz-adv-x="1245" d="M111 557v160h1024v-160h-1024z" />
<glyph unicode="&#x2014;" horiz-adv-x="1757" d="M111 557v160h1536v-160h-1536z" />
<glyph unicode="&#x2018;" horiz-adv-x="495" d="M109 1016l194 448l111 -41l-99 -448z" />
<glyph unicode="&#x2019;" horiz-adv-x="411" d="M41 1012l94 440l187 -41l-170 -444z" />
<glyph unicode="&#x201a;" horiz-adv-x="518" d="M111 -303l98 448l207 -41l-195 -448z" />
<glyph unicode="&#x201c;" horiz-adv-x="843" d="M115 1016l194 448l111 -41l-98 -448zM436 1016l195 448l110 -41l-98 -448z" />
<glyph unicode="&#x201d;" horiz-adv-x="636" d="M-41 1016l98 448l207 -41l-194 -448zM281 1016l98 448l207 -41l-195 -448z" />
<glyph unicode="&#x201e;" horiz-adv-x="737" d="M111 -303l98 448l207 -41l-195 -448zM432 -303l98 448l207 -41l-194 -448z" />
<glyph unicode="&#x2022;" horiz-adv-x="589" d="M78 643q0 88 63.5 151.5t151.5 63.5q89 0 153 -63.5t64 -151.5q0 -89 -64 -153t-153 -64q-88 0 -151.5 64t-63.5 153z" />
<glyph unicode="&#x2026;" horiz-adv-x="1720" d="M205 102q0 46 34 80.5t80 34.5t80.5 -34.5t34.5 -80.5t-34.5 -80t-80.5 -34t-80 34t-34 80zM745 102q0 46 34.5 80.5t80.5 34.5t80.5 -34.5t34.5 -80.5t-34.5 -80t-80.5 -34t-80.5 34t-34.5 80zM1286 102q0 46 34.5 80.5t80.5 34.5t80.5 -34.5t34.5 -80.5t-34.5 -80 t-80.5 -34t-80.5 34t-34.5 80z" />
<glyph unicode="&#x202f;" horiz-adv-x="331" />
<glyph unicode="&#x2039;" horiz-adv-x="716" d="M123 539v106q72 71 217 212.5t217 211.5q6 -26 18.5 -84t18.5 -84l-289 -309l289 -309q-6 -25 -18.5 -84t-18.5 -84z" />
<glyph unicode="&#x203a;" horiz-adv-x="716" d="M123 283l289 309l-289 309l37 168l434 -424v-106l-434 -424z" />
<glyph unicode="&#x205f;" horiz-adv-x="414" />
<glyph unicode="&#x2122;" horiz-adv-x="1497" d="M115 1096v174h528v-174h-68l-22 84h-119v-592h-110v592h-129q-15 -51 -17 -84h-63zM666 1204v66h198l195 -482l219 482h100v-682h-106v452l-197 -452h-55l-182 467v-467h-82v598z" />
<glyph unicode="&#x25fc;" horiz-adv-x="1024" d="M0 0v1024h1024v-1024h-1024z" />
</font>
</defs>
</svg>
